# xmcd CD database file
#
# Track frame offsets:
#	182
#	20570
#	41245
#	62457
#	80882
#	95307
#	115407
#	134670
#	156070
#	172057
#
# Disc length: 2561 seconds
#
# Revision: 2
# Processed by: cddbd v1.4PL0 Copyright (c) Steve Scherf et al.
# Submitted via: jetAudio 5
#
DISCID=8a09ff0a
DTITLE=정경화 - My Blue Dreams
DYEAR=1900
DGENRE=
TTITLE0=슬픈 사랑의 노래
TTITLE1=나의 곁에서
TTITLE2=나에게로의 초대
TTITLE3=내 노래를 듣고 있다면
TTITLE4=매일 헤어지는 연인
TTITLE5=이유
TTITLE6=사랑은 비가 되어
TTITLE7=시간이 범춰버린
TTITLE8=진혼곡(Birds Insane)
TTITLE9=슬픈 사랑의 노래(Instrumental)
EXTD=
EXTT0=
EXTT1=
EXTT2=
EXTT3=
EXTT4=
EXTT5=
EXTT6=
EXTT7=
EXTT8=
EXTT9=
PLAYORDER=
